<?xml version="1.0" standalone="no"?>
<!DOCTYPE svg PUBLIC "-//W3C//DTD SVG 20010904//EN"
 "http://www.w3.org/TR/2001/REC-SVG-20010904/DTD/svg10.dtd">
<svg version="1.0" xmlns="http://www.w3.org/2000/svg"
 width="737.000000pt" height="737.000000pt" viewBox="0 0 737.000000 737.000000"
 preserveAspectRatio="xMidYMid meet">
<metadata>
Created by potrace 1.11, written by Peter Selinger 2001-2013
</metadata>
<g transform="translate(0.000000,737.000000) scale(0.100000,-0.100000)"
fill="#000000" stroke="none">
<path d="M3379 7016 c-2 -2 -65 -7 -139 -11 -74 -4 -151 -8 -170 -10 -19 -1
-71 -6 -115 -9 -44 -4 -100 -9 -125 -11 -25 -3 -67 -8 -95 -11 -27 -2 -61 -7
-75 -9 -25 -4 -68 -9 -165 -20 -27 -3 -57 -8 -65 -10 -8 -2 -35 -7 -60 -10
-100 -14 -294 -48 -430 -77 -52 -10 -106 -22 -120 -24 -14 -3 -59 -14 -100
-24 -41 -10 -86 -21 -100 -24 -14 -3 -68 -17 -120 -31 -52 -14 -104 -28 -115
-30 -11 -3 -85 -26 -165 -51 -80 -24 -149 -46 -155 -48 -5 -2 -17 -5 -25 -8
-8 -3 -37 -13 -65 -23 -27 -9 -80 -28 -116 -41 l-67 -25 -7 -47 c-3 -26 -8
-56 -10 -67 -4 -19 -9 -56 -20 -155 -3 -25 -8 -58 -10 -75 -20 -129 -27 -625
-13 -836 l7 -105 -362 -1 c-199 -1 -365 -2 -369 -2 -5 -1 -8 -333 -8 -739 l0
-738 243 -1 c133 -1 378 -1 543 -2 l301 -1 23 -62 c68 -188 267 -618 380 -823
18 -33 46 -85 63 -115 17 -30 41 -72 54 -92 12 -21 23 -39 23 -42 0 -8 193
-312 267 -419 355 -518 772 -995 1212 -1387 46 -41 89 -79 95 -85 6 -5 32 -27
58 -48 26 -21 53 -43 60 -50 11 -10 35 -29 113 -90 42 -32 86 -65 109 -82 16
-11 48 -35 73 -54 37 -27 49 -32 66 -23 21 9 276 198 287 211 3 4 41 36 85 71
44 36 82 67 85 70 3 3 48 43 100 90 128 114 423 407 541 538 357 396 662 812
943 1285 42 71 76 131 76 134 0 3 9 18 21 34 11 16 18 29 15 29 -4 0 5 18 19
40 71 112 298 605 365 790 13 36 26 69 30 73 4 5 147 10 316 12 259 2 318 5
364 20 214 67 341 253 342 503 0 152 -46 286 -128 372 l-34 35 53 110 c29 61
70 146 91 190 20 44 54 116 75 160 21 44 37 82 35 84 -2 2 -175 4 -384 4
l-380 0 7 121 c14 231 9 587 -12 801 -7 74 -23 197 -30 230 -2 11 -7 43 -11
70 -8 62 -8 62 -51 80 -102 43 -574 191 -704 221 -13 3 -40 10 -59 14 -221 54
-549 122 -705 145 -22 3 -69 10 -105 16 -36 6 -85 13 -110 15 -25 3 -56 7 -70
10 -14 2 -50 6 -80 10 -30 3 -66 7 -80 9 -14 3 -56 7 -95 10 -38 3 -83 8 -100
10 -27 4 -109 10 -265 21 -77 5 -747 14 -751 10z"/>
</g>
</svg>
